<svg xmlns="http://www.w3.org/2000/svg" viewBox="0 0 760 180" role="img" aria-labelledby="title desc">
  <title id="title">LoopinEdu</title>
  <desc id="desc">Logo vetorial do LoopinEdu</desc>
  <defs>
    <linearGradient id="gMark" x1="0" y1="0" x2="1" y2="1">
      <stop offset="0%" stop-color="#6d7cff"/>
      <stop offset="100%" stop-color="#2cc7a5"/>
    </linearGradient>
    <linearGradient id="gAccent" x1="0" y1="0" x2="1" y2="1">
      <stop offset="0%" stop-color="#2cc7a5"/>
      <stop offset="100%" stop-color="#6d7cff"/>
    </linearGradient>
  </defs>
  <g transform="translate(14 18)">
    <rect x="0" y="0" width="126" height="126" rx="30" fill="#233252"/>
    <rect x="22" y="18" width="30" height="88" rx="10" fill="url(#gAccent)"/>
    <path d="M90 18H66c-12.15 0-22 9.85-22 22v44c0 12.15 9.85 22 22 22h24" fill="none" stroke="#f5f7ff" stroke-width="18" stroke-linecap="round" stroke-linejoin="round"/>
    <path d="M96 48H70c-7.73 0-14 6.27-14 14v34c0 5.52 4.48 10 10 10h30" fill="none" stroke="#f5f7ff" stroke-width="16" stroke-linecap="round" stroke-linejoin="round"/>
    <path d="M20 94c20 16 42 22 73 21 13-.43 24-2.1 33-4.45v14.5c-9.88 2.47-21.8 4.03-35 4.45-35.4 1.14-60.69-6.45-80.5-22.5z" fill="url(#gMark)" opacity=".88"/>
  </g>
  <g transform="translate(172 34)">
    <text x="0" y="68" font-family="Inter, Arial, sans-serif" font-size="74" font-weight="800" fill="#233252" letter-spacing="-2">Loopin</text>
    <text x="258" y="68" font-family="Inter, Arial, sans-serif" font-size="74" font-weight="800" fill="#2cc7a5" letter-spacing="-2">Edu</text>
    <text x="2" y="118" font-family="Inter, Arial, sans-serif" font-size="28" font-weight="500" fill="#6c7a99">Entenda o estudante por inteiro</text>
  </g>
</svg>